<svg width="92" height="28" viewBox="0 0 92 28" fill="none" xmlns="http://www.w3.org/2000/svg">
<g id="logo">
<path id="type" d="M67.4101 10.4918H66.1122C65.9713 10.4881 65.8459 10.5802 65.8077 10.7154C65.7437 10.9071 65.6956 11.0348 65.6796 11.1147C65.1668 12.6797 64.3817 15.0431 63.3562 18.1891C63.3401 18.237 63.2761 18.4127 63.1479 18.7001C63.1115 18.7785 63.0192 18.8138 62.9396 18.78C62.9055 18.7619 62.8776 18.7341 62.8594 18.7001C62.7473 18.4446 62.6832 18.2849 62.6511 18.1891C61.5936 14.9473 60.8084 12.5147 60.2957 10.8911C60.2728 10.8402 60.2567 10.7865 60.2476 10.7314C60.2058 10.5988 60.0827 10.5084 59.9432 10.5078H58.6613C58.4843 10.5078 58.3408 10.6508 58.3408 10.8272C58.3383 10.86 58.3438 10.8929 58.3569 10.923C58.3674 10.9675 58.3836 11.0104 58.4049 11.0508C59.2061 13.3184 60.4079 16.7093 62.0102 21.2233C62.0114 21.2355 62.0171 21.2469 62.0262 21.2552C62.0502 21.3169 62.0502 21.3852 62.0262 21.4468C62.0262 21.4628 62.0262 21.4628 62.0102 21.4788C61.9942 21.5427 61.9621 21.6225 61.9461 21.6864C61.7188 22.3132 61.1247 22.7334 60.4559 22.7404H59.11C58.933 22.7404 58.7895 22.8834 58.7895 23.0597V24.1297C58.7895 24.3061 58.933 24.4491 59.11 24.4491H60.4559C61.762 24.4473 62.9436 23.6768 63.4683 22.4848C63.4832 22.4343 63.5047 22.386 63.5324 22.3411C63.5484 22.2932 64.4938 19.6263 67.6504 10.8272C67.6734 10.768 67.6709 10.702 67.6437 10.6447C67.6164 10.5873 67.5667 10.5436 67.5062 10.5238C67.4582 10.5078 67.4421 10.4918 67.4101 10.4918ZM50.3291 19.5784C50.6339 19.6789 50.9535 19.7275 51.2745 19.7222C52.2279 19.709 53.1398 19.3317 53.8222 18.6682C54.3213 18.1691 54.5935 17.4881 54.5753 16.7838V15.9534C54.5765 15.909 54.557 15.8666 54.5225 15.8385C54.488 15.8104 54.4425 15.7998 54.3991 15.8097C54.2389 15.8256 54.1587 15.8256 54.1587 15.8256L53.1493 15.9534L51.1463 16.2568C50.0728 16.4325 49.4158 16.8636 49.2075 17.5344C49.1563 17.6945 49.1293 17.8613 49.1274 18.0294C49.1465 18.7516 49.6327 19.3782 50.3291 19.5784ZM56.37 20.2811V20.9199C56.37 21.0962 56.2265 21.2392 56.0495 21.2392H55.008C54.831 21.2392 54.6875 21.0962 54.6875 20.9199L54.6715 19.8659C54.6687 19.8492 54.6633 19.833 54.6555 19.818C54.6409 19.8025 54.6206 19.7938 54.5994 19.7938C54.5781 19.7938 54.5578 19.8025 54.5433 19.818C54.4806 19.8724 54.4217 19.9311 54.367 19.9936C53.5338 20.824 52.3962 21.2392 50.922 21.2392C49.8645 21.2392 48.9992 20.9518 48.3262 20.3929C47.6532 19.8339 47.3328 19.0514 47.3328 18.0613C47.3207 17.5875 47.4195 17.1173 47.6212 16.688C47.7923 16.3265 48.058 16.0176 48.3903 15.7937C48.6757 15.5908 48.9886 15.4294 49.3197 15.3146C49.6166 15.2086 49.9222 15.1284 50.233 15.0751C51.7873 14.8515 52.6205 14.7397 52.7807 14.7078C52.9089 14.6918 53.4217 14.6279 54.3029 14.5002C54.3608 14.4876 54.42 14.4823 54.4792 14.4842C54.5594 14.4721 54.6197 14.4052 54.6234 14.3245V13.8774C54.6234 13.2067 54.4472 12.6797 54.0946 12.3124C53.7421 11.9451 53.0852 11.7534 52.1398 11.7534C51.7059 11.7456 51.2735 11.8048 50.8579 11.9291C50.5415 12.0252 50.2584 12.2078 50.0407 12.4561C49.8946 12.6405 49.7759 12.8448 49.6882 13.0629C49.6722 13.1108 49.6562 13.1588 49.6401 13.2226C49.6423 13.2402 49.6364 13.2578 49.6241 13.2705C49.5932 13.4216 49.4584 13.5292 49.3036 13.526H48.1019C47.9279 13.511 47.7951 13.3647 47.7974 13.1907V13.1268C47.8135 12.9991 47.8295 12.9032 47.8455 12.8234C47.9256 12.5146 48.0497 12.2188 48.2141 11.9451C48.4061 11.6392 48.6501 11.3691 48.9351 11.1466C49.3166 10.8868 49.7391 10.6925 50.1849 10.5717C50.7976 10.417 51.4277 10.3418 52.0597 10.3481C54.9599 10.3481 56.37 11.4979 56.37 13.8295V20.2811ZM80.1327 10.7314V20.8879C80.1327 21.0643 80.2762 21.2073 80.4531 21.2073H81.751C81.928 21.2073 82.0715 21.0643 82.0715 20.8879V10.7314C82.0715 10.555 81.928 10.412 81.751 10.412H80.4531C80.2762 10.412 80.1327 10.555 80.1327 10.7314ZM80.1327 7.50561V8.79912C80.1327 8.97551 80.2762 9.11851 80.4531 9.11851H81.751C81.928 9.11851 82.0715 8.97551 82.0715 8.79912V7.50561C82.0715 7.32921 81.928 7.18622 81.751 7.18622H80.4531C80.2762 7.18622 80.1327 7.32921 80.1327 7.50561ZM88.1284 12.1048H90.8684C91.0453 12.1048 91.1888 11.9618 91.1888 11.7854V10.7154C91.1888 10.5391 91.0453 10.3961 90.8684 10.3961H88.1284C88.085 10.3989 88.0426 10.383 88.0119 10.3524C87.9812 10.3218 87.9653 10.2795 87.9681 10.2364V7.50561C87.9681 7.32921 87.8246 7.18622 87.6477 7.18622H86.3498C86.1728 7.18622 86.0293 7.32921 86.0293 7.50561V10.2523C86.0322 10.2955 86.0162 10.3378 85.9855 10.3684C85.9548 10.399 85.9124 10.4149 85.8691 10.412H84.6833C84.5063 10.412 84.3629 10.555 84.3629 10.7314V11.8014C84.3629 11.9778 84.5063 12.1207 84.6833 12.1207H85.8691C85.9124 12.1179 85.9548 12.1338 85.9855 12.1644C86.0162 12.195 86.0322 12.2373 86.0293 12.2804V18.0454C86.0895 19.8034 87.5331 21.1997 89.2981 21.2073H90.7562C90.9332 21.2073 91.0767 21.0643 91.0767 20.8879V19.818C91.0767 19.6416 90.9332 19.4986 90.7562 19.4986H89.2981C88.941 19.499 88.5984 19.3578 88.3458 19.1062C88.0933 18.8545 87.9517 18.5131 87.9521 18.1572V12.2645C87.9656 12.1764 88.0391 12.1098 88.1284 12.1048ZM45.8586 11.5458C45.8609 9.17433 43.9594 7.23664 41.5804 7.18622H35.4114C35.2344 7.18622 35.0909 7.32921 35.0909 7.50561V20.8879C35.0909 21.0643 35.2344 21.2073 35.4114 21.2073H36.7092C36.8862 21.2073 37.0297 21.0643 37.0297 20.8879V16.0811C37.0268 16.038 37.0428 15.9957 37.0735 15.9651C37.1042 15.9345 37.1466 15.9186 37.1899 15.9214H41.5804C43.9601 15.8583 45.8569 13.9184 45.8586 11.5458ZM44.1601 11.5458C44.1584 13.0092 42.9685 14.195 41.5002 14.1968H37.206C37.1627 14.1996 37.1202 14.1837 37.0895 14.1531C37.0588 14.1225 37.0429 14.0802 37.0457 14.0371V9.05463C37.0429 9.01147 37.0588 8.96917 37.0895 8.93858C37.1202 8.90799 37.1627 8.89208 37.206 8.89494H41.5002C42.9685 8.8967 44.1584 10.0825 44.1601 11.5458ZM71.6563 15.8735H76.5274C76.7044 15.8735 76.8479 15.7305 76.8479 15.5542V14.4842C76.8479 14.3078 76.7044 14.1648 76.5274 14.1648H71.6563C71.613 14.1677 71.5705 14.1518 71.5398 14.1212C71.5092 14.0906 71.4932 14.0483 71.4961 14.0051V9.05463C71.4932 9.01147 71.5092 8.96917 71.5398 8.93858C71.5705 8.90799 71.613 8.89208 71.6563 8.89494H77.633C77.81 8.89494 77.9535 8.75194 77.9535 8.57555V7.50561C77.9535 7.32921 77.81 7.18622 77.633 7.18622H69.8777C69.7007 7.18622 69.5572 7.32921 69.5572 7.50561V20.8879C69.5572 21.0643 69.7007 21.2073 69.8777 21.2073H71.1756C71.3526 21.2073 71.4961 21.0643 71.4961 20.8879V16.0332C71.4961 15.945 71.5678 15.8735 71.6563 15.8735Z" fill="white"/>
<path id="Monogram" fill-rule="evenodd" clip-rule="evenodd" d="M14.0474 28C6.28923 28 0 21.732 0 14C0 6.26801 6.28923 0 14.0474 0C21.8056 0 28.0948 6.26801 28.0948 14C28.0948 21.732 21.8056 28 14.0474 28ZM13.8558 18.9795V16.1955C13.853 16.1525 13.8689 16.1103 13.8995 16.0798C13.93 16.0494 13.9723 16.0335 14.0155 16.0364H17.2879C19.5949 15.9435 21.416 14.0503 21.4117 11.7492C21.4074 9.44803 19.5793 7.56158 17.2719 7.47727H9.25851C9.08219 7.47727 8.93925 7.61973 8.93925 7.79545V19.0273C8.93925 20.3804 10.0399 21.4773 11.3975 21.4773C12.7552 21.4773 13.8558 20.3804 13.8558 19.0273C13.8771 18.9955 13.8771 18.9795 13.8558 18.9795ZM14.0155 12.3773H17.1123C17.4649 12.3773 17.7508 12.0924 17.7508 11.7409C17.7508 11.3895 17.4649 11.1045 17.1123 11.1045H12.914C12.7377 11.1045 12.5948 11.247 12.5948 11.4227V19.0114C12.5948 19.6703 12.0588 20.2045 11.3975 20.2045C10.7363 20.2045 10.2003 19.6703 10.2003 19.0114V8.89318C10.1975 8.85018 10.2134 8.80804 10.2439 8.77757C10.2745 8.74709 10.3168 8.73125 10.36 8.73409H17.1123C18.1959 8.7142 19.2078 9.27194 19.7668 10.1972C20.3259 11.1225 20.3472 12.2748 19.8227 13.22C19.2982 14.1651 18.3076 14.7597 17.224 14.7795H14.0155C13.9723 14.7824 13.93 14.7665 13.8995 14.7361C13.8689 14.7056 13.853 14.6635 13.8558 14.6205V12.5523C13.8555 12.4615 13.9248 12.3855 14.0155 12.3773Z" fill="white"/>
</g>
</svg>
