<svg width="532" height="380" viewBox="0 0 532 380" fill="none" xmlns="http://www.w3.org/2000/svg">
<path d="M111.232 84.609C112.23 83.9405 114.413 82.478 115.162 81.9766C116.097 81.3499 117.38 82.2528 116.322 84.3166C115.477 85.9676 115.1 87.2136 115.018 87.6303C115.779 88.1596 117.34 89.6803 117.494 91.529M118.041 84.6563C117.618 86.2502 116.896 89.625 117.398 90.3735C117.774 90.9349 118.325 91.0742 118.722 91.0689M121.818 83.6171C121.87 84.6665 119.998 88.9934 119.055 91.0257C118.969 91.0494 118.854 91.0672 118.722 91.0689M118.722 91.0689C118.806 91.4636 119.027 92.8061 120.308 92.897C121.333 92.9696 122.723 87.8005 123.29 85.2068" stroke="#D27D51" stroke-width="1.27409" stroke-linecap="round" stroke-linejoin="round"/>
<path d="M49.151 127.169L54.0881 124.303L57.9104 130.832L52.0177 131.947L49.151 127.169Z" fill="#002B5C" stroke="#002B5C" stroke-width="1.27409" stroke-linecap="round" stroke-linejoin="round"/>
<path d="M50.7436 133.381C49.2147 130.96 50.9029 129.824 52.177 129.558L53.9288 130.832L56.1585 129.081C55.9992 128.656 55.1392 127.106 54.2474 126.214C56.5407 122.392 63.6438 120.534 66.6697 120.162C68.3685 123.294 72.4031 130.13 72.4031 132.266C72.4031 134.655 68.8994 136.46 66.6697 137.362C67.9438 139.592 70.1735 143.573 69.0587 145.962C65.2364 149.625 60.2993 147.714 58.2289 145.962C57.2733 144.051 54.5128 138.158 53.9288 135.132C53.1325 135.132 52.2725 135.801 50.7436 133.381Z" fill="#FDC48F" stroke="#FDC48F" stroke-width="1.27409" stroke-linecap="round" stroke-linejoin="round"/>
<path d="M121.247 93.8944C121.301 95.5934 119.174 98.0843 118.104 99.1175L109.331 96.4319C109.733 94.4008 108.679 88.4878 109.331 86.8309C109.853 85.5054 112.801 83.5124 113.851 82.8541C114.185 78.4286 115.015 69.7396 115.79 69.7628C116.758 69.7919 117.043 71.634 117.3 74.4445C117.505 76.6929 117.634 79.8681 117.659 81.6588C121.239 81.932 121.447 82.6177 121.943 83.8043C123.099 84.145 123.363 84.5521 123.571 85.4248C123.926 85.8197 124.586 86.8593 124.388 87.8592C124.141 89.1091 122.966 94.2341 121.247 93.8944Z" fill="#FDC48F" stroke="#FDC48F" stroke-width="1.27409" stroke-linecap="round" stroke-linejoin="round"/>
<path d="M60.2992 306.498C59.917 306.498 48.3015 306.763 42.4619 306.498C43.4175 299.172 52.1769 299.809 54.2473 300.286C56.3177 300.764 60.777 306.498 60.2992 306.498Z" fill="#34CDAA" stroke="#34CDAA" stroke-width="1.27409" stroke-linecap="round" stroke-linejoin="round"/>
<path d="M33.0653 292.005L33.3838 288.82L45.0099 290.094L33.0653 292.005Z" fill="#002B5C"/>
<path d="M91.6735 270.823L92.7883 267.638L107.122 271.779L105.848 273.371L91.6735 270.823Z" fill="#002B5C"/>
<path d="M33.0653 292.005L33.3838 288.82L45.0099 290.094L33.0653 292.005Z" stroke="#002B5C" stroke-width="1.27409" stroke-linecap="round" stroke-linejoin="round"/>
<path d="M91.6735 270.823L92.7883 267.638L107.122 271.779L105.848 273.371L91.6735 270.823Z" stroke="#002B5C" stroke-width="1.27409" stroke-linecap="round" stroke-linejoin="round"/>
<path d="M112.218 299.012L98.9997 291.208C100.752 288.979 108.715 288.342 111.104 290.094C113.015 291.495 112.643 296.623 112.218 299.012Z" fill="#34CDAA" stroke="#34CDAA" stroke-width="1.27409" stroke-linecap="round" stroke-linejoin="round"/>
<path d="M78.7733 157.907C79.5696 155.359 83.8697 155.518 84.5067 156.792C84.768 157.949 85.052 159.458 85.2813 161.092C86.0302 166.429 86.1948 173.098 83.0733 173.196L83.5511 181.637C85.08 181.637 87.2672 183.017 88.1697 183.707L80.0474 184.503C81.3215 183.357 82.9141 182.115 83.5511 181.637L83.0733 173.196C80.0322 173.291 78.9286 167.337 78.7184 162.366C78.6468 160.673 78.6788 159.094 78.7733 157.907Z" fill="white"/>
<path d="M78.7733 157.907C79.5696 155.359 83.8697 155.518 84.5067 156.792M78.7733 157.907C79.7289 159.181 83.2326 159.818 84.5067 156.792M78.7733 157.907C78.6788 159.094 78.6468 160.673 78.7184 162.366M83.0733 173.196L83.5511 181.637M83.0733 173.196C80.0322 173.291 78.9286 167.337 78.7184 162.366M83.0733 173.196C86.1948 173.098 86.0302 166.429 85.2813 161.092M84.5067 156.792C84.768 157.949 85.052 159.458 85.2813 161.092M83.5511 181.637C82.9141 182.115 81.3215 183.357 80.0474 184.503L88.1697 183.707C87.2672 183.017 85.08 181.637 83.5511 181.637ZM78.7184 162.366C80.0494 163.003 83.2254 163.64 85.2813 161.092" stroke="#002B5C" stroke-width="1.65244" stroke-linecap="round" stroke-linejoin="round"/>
<path d="M81.2325 154.395C80.3096 152.661 78.0356 149.492 76.3234 150.687C74.1831 152.182 78.378 155.19 80.0799 150.785C81.7818 146.379 73.5704 144.721 72.9938 148.495" stroke="#002B5C" stroke-width="1.27409" stroke-linecap="round" stroke-linejoin="round"/>
<circle cx="88.8074" cy="151.536" r="0.637045" fill="#002B5C"/>
<circle cx="81.7996" cy="149.307" r="0.637045" fill="#002B5C"/>
<circle cx="83.0737" cy="153.447" r="0.637045" fill="#002B5C"/>
<circle cx="89.0675" cy="147.869" r="0.637045" fill="#002B5C"/>
<path d="M71.5924 181.478C70.2475 177.763 69.8424 175.64 70.0769 171.743C72.2933 168.928 73.4057 167.117 76.442 165.159C79.9709 162.628 79.5969 166.103 76.8966 168.594C78.8668 168.594 81.0491 168.68 81.8977 168.451C82.7464 168.222 84.9287 165.874 86.8989 164.872C88.869 163.87 88.1113 167.735 81.4431 172.316C91.1423 167.878 90.8683 169.561 89.7783 171.887C90.9344 172.071 91.1247 172.455 89.7783 174.177C90.5287 174.2 90.6876 174.893 90.3845 175.465C90.0814 176.038 83.5951 180.705 81.8978 181.048C80.2004 181.392 74.3203 181.478 71.5924 181.478Z" fill="#FDC48F" stroke="#FDC48F" stroke-width="1.27409" stroke-linecap="round" stroke-linejoin="round"/>
<path d="M26.3585 306.657C27.6561 302.154 30.2035 293.868 31.1543 292.323C31.6621 292.235 32.1378 292.173 32.5877 292.137M26.3585 306.657C25.9173 308.188 25.6206 309.281 25.5802 309.524C25.4209 310.479 58.388 310.32 60.2991 310.32C62.2103 310.32 60.7769 302.835 54.2472 299.172C53.2318 298.602 52.4591 298.005 51.8583 297.403M26.3585 306.657H60.4584M43.736 298.216C46.8232 297.484 48.5897 297.247 51.8583 297.403M51.8583 297.403C51.0642 296.607 50.5705 295.8 50.214 295.031M42.3026 295.986C45.2701 295.009 46.9664 294.623 50.214 295.031M50.214 295.031C49.1057 292.64 49.3239 290.616 45.9656 290.412C41.7611 290.157 40.71 293.704 40.71 295.509C37.7627 293.013 35.8596 291.877 32.5877 292.137M32.5877 292.137L33.384 288.979" stroke="#002B5C" stroke-width="1.65244" stroke-linecap="round" stroke-linejoin="round"/>
<path d="M101.792 281.871C104.821 282.816 106.461 283.514 109.193 285.316M109.193 285.316C109.402 286.141 110.61 288.59 111.193 289.598C113.401 293.419 113.409 297.478 112.707 299.968M109.193 285.316C108.916 284.226 108.903 283.28 108.989 282.437M101.697 279.222C104.748 279.895 106.404 280.429 108.989 282.437M108.989 282.437C109.255 279.815 109.907 277.489 107.122 275.601C106.528 275.198 105.94 274.942 105.37 274.804M83.5729 281.653C85.5259 277.966 88.9008 271.86 90.2406 270.186C90.8134 270.403 91.3422 270.602 91.8332 270.791M83.5729 281.653C82.7401 283.225 82.1658 284.358 82.1182 284.519C81.959 285.06 109.066 301.298 110.709 302.273C111.384 302.674 112.218 301.702 112.707 299.968M83.5729 281.653L112.707 299.968M91.8332 270.791C95.6902 272.273 97.2173 273.132 99.4777 277.512C100.242 276.224 102.599 274.131 105.37 274.804M91.8332 270.791L92.948 267.797M105.37 274.804L106.644 272.416" stroke="#002B5C" stroke-width="1.65244" stroke-linecap="round" stroke-linejoin="round"/>
<path d="M52.8138 239.448C52.8681 236.944 51.3805 214.864 52.8138 200.111L95.3366 192.148C103.459 202.022 120.054 223.586 121.455 230.848C122.857 238.111 114.289 261.586 109.829 272.416C103.425 270.562 98.9949 269.175 89.1254 265.886C92.2044 257.073 98.2351 238.939 97.7255 236.9C97.2158 234.862 86.7895 222.991 81.6401 217.311C80.4191 223.363 77.3082 236.964 74.6326 242.952C71.957 248.94 57.5916 276.45 50.7434 289.457C44.2795 289.377 39.346 288.849 29.5616 287.545C34.9765 272.416 52.7594 241.953 52.8138 239.448Z" fill="#4A94E8" stroke="#4A94E8" stroke-width="1.27409" stroke-linecap="round" stroke-linejoin="round"/>
<path d="M66.9883 119.684C64.381 118.127 52.3363 125.895 49.3103 129.877C46.0044 128.208 45.625 127.088 46.6029 123.666C45.8066 121.542 44.851 116.499 47.3992 113.314C50.5844 109.332 56.3178 109.014 61.5734 112.677C62.8475 112.358 69.0587 117.136 66.9883 119.684Z" fill="#FFBCBA" stroke="#FFBCBA" stroke-width="1.27409" stroke-linecap="round" stroke-linejoin="round"/>
<path d="M39.9137 180.84C41.1878 178.133 44.6915 177.814 46.2841 177.814C47.4314 177.814 48.9918 175.253 51.8583 174.177M64.5992 171.922C61.5732 170.329 60.2991 171.285 55.8398 173.833C54.2809 173.566 52.9712 173.759 51.8583 174.177M50.5842 161.888C53.1568 165.753 53.9481 168.212 51.8583 174.177M44.373 186.733C46.6038 185.442 47.8614 185.621 50.1064 186.255M68.1029 184.185C68.2622 185.937 66.5103 187.37 64.5992 188.007C62.6881 188.644 62.6881 192.466 57.751 192.785C52.8139 193.104 53.4509 193.104 52.3361 193.741C51.2212 194.378 49.4694 198.359 46.2841 197.722C43.0989 197.085 40.8693 194.696 38.9581 193.741C37.047 192.785 31.6321 193.581 30.9951 187.052C30.358 180.522 35.1358 179.089 35.2951 177.814C35.4544 176.54 33.0655 174.788 33.5432 171.922C34.021 169.055 36.0914 168.577 36.5692 167.144C37.047 165.711 35.9322 159.977 38.4803 156.951C41.0285 153.925 41.9841 154.722 42.6211 153.288C43.2582 151.855 45.4878 144.847 52.6546 144.051" stroke="#002B5C" stroke-width="1.65244" stroke-linecap="round" stroke-linejoin="round"/>
<path d="M50.4247 195.652C50.2654 197.244 51.221 199.633 52.6544 199.474C54.0877 199.315 93.903 191.67 95.3364 191.511C96.7697 191.352 97.4068 185.618 93.266 182.752C93.266 180.968 92.5228 177.868 92.1512 176.54C92.4166 174.842 92.7882 171.03 92.1512 169.374C91.3549 167.303 90.0808 165.551 89.4437 163.64C88.8067 161.729 89.603 158.862 88.8067 157.748C88.0104 156.633 86.7363 156.473 86.2585 155.199C85.7807 153.925 86.2585 150.262 82.4362 147.714M94.5401 136.088C95.3364 133.221 98.9994 130.832 100.592 130.673C102.185 130.514 101.07 125.895 102.981 125.417" stroke="#002B5C" stroke-width="1.859" stroke-linecap="round" stroke-linejoin="round"/>
<path d="M45.9657 123.825C46.2905 123.44 46.6085 123.068 46.9212 122.71M61.5733 112.358C61.0204 112.587 60.8088 112.611 60.2992 112.836M50.9028 128.603C49.1536 126.43 48.2142 125.185 46.9212 122.71M46.9212 122.71C47.6237 121.905 48.2997 121.166 48.9682 120.48M53.4509 126.373C51.3906 124.107 50.401 122.993 48.9682 120.48M48.9682 120.48C49.8246 119.602 50.6685 118.811 51.5398 118.083M56.4769 124.143C54.6381 121.549 53.7237 120.443 51.5398 118.083M51.5398 118.083C52.5021 117.278 53.4978 116.549 54.5803 115.862M59.8214 122.073C57.9717 119.323 56.9672 118.198 54.5803 115.862M54.5803 115.862C55.4635 115.301 56.4045 114.768 57.4325 114.244M62.5288 120.48C60.6907 117.603 59.8252 116.608 57.4325 114.244M57.4325 114.244C58.2257 113.84 59.3891 113.238 60.2992 112.836M66.0326 119.684C64.44 116.658 62.8474 115.066 60.2992 112.836" stroke="#002B5C" stroke-width="1.44589" stroke-linecap="round" stroke-linejoin="round"/>
<path d="M50.9027 131.788L53.1323 132.903M62.8473 123.029C63.9621 123.719 66.1917 125.163 66.1917 125.418C66.1917 125.672 64.8115 126.055 64.1214 126.214M62.051 129.877L67.3066 128.284C67.3597 129.24 67.0836 131.278 65.5547 131.788C64.0258 132.298 62.5818 130.726 62.051 129.877Z" stroke="#D27D51" stroke-width="1.44589" stroke-linecap="round" stroke-linejoin="round"/>
<path d="M58.7066 127.966C59.1117 126.409 59.5518 125.809 61.7325 126.532M67.3067 124.303C67.507 123.127 67.8213 122.829 69.0585 123.506M56.3176 126.532C57.2849 125.318 57.9176 124.729 59.5029 124.143M65.3955 121.595C66.2814 121.177 66.8025 121.098 67.7844 121.277" stroke="#002B5C" stroke-width="1.44589" stroke-linecap="round" stroke-linejoin="round"/>
<path d="M52.8139 144.051C53.2511 143.007 53.6583 142.497 54.8843 141.821M54.5658 146.121C54.762 145.049 55.0142 144.529 55.6806 143.733M56.1584 148.033C56.3407 147.04 56.5547 146.552 57.114 145.803M58.388 149.466C58.3922 148.717 58.4693 148.299 58.7066 147.555M60.9362 150.74C60.8 149.807 60.7932 149.284 60.9362 148.351M64.1215 151.218C63.7154 150.3 63.5804 149.805 63.6437 148.988M67.3067 151.218C66.6173 150.202 66.2985 149.64 66.0326 148.67M70.1734 149.784C69.6165 148.727 69.2155 148.221 68.2623 147.555M71.2882 147.873C70.7459 147.133 70.4106 146.74 69.6956 146.121M72.0845 145.325C71.2692 144.582 70.759 144.303 69.6956 144.21M71.766 142.777C70.9941 142.278 70.5091 142.13 69.5363 142.14M68.74 139.592C71.2882 137.521 72.4349 139.273 73.8364 138.636C75.5883 137.84 75.1105 136.088 76.2253 135.451C77.3401 134.814 79.2513 134.973 81.0032 134.018C81.8525 133.009 83.8699 130.896 85.1439 130.514C86.7366 130.036 89.9218 130.195 91.0366 128.762C92.1514 127.329 92.47 122.551 93.2663 121.117C94.0626 119.684 96.2922 118.41 96.77 117.932C97.2478 117.454 95.9737 113.473 96.77 111.88C97.5663 110.288 100.115 108.217 100.752 107.262C101.389 106.306 100.274 101.05 104.096 100.095C107.154 99.3305 109.405 102.006 110.148 103.439C111.528 103.174 114.83 102.993 116.996 104.395C119.226 105.988 118.27 109.651 117.633 110.288C116.996 110.925 118.43 113.154 116.996 115.543C115.563 117.932 114.289 118.569 113.97 119.525C113.652 120.48 115.244 122.71 113.97 124.94C112.696 127.169 109.989 128.284 109.352 128.762C108.715 129.24 109.033 136.406 107.122 138.636C105.211 140.866 102.026 141.025 100.752 142.14C99.4775 143.255 98.0441 146.599 95.6552 147.077C93.2663 147.555 90.5588 147.555 89.444 147.555C88.3292 147.555 87.5329 150.262 85.3032 150.74" stroke="#002B5C" stroke-width="1.65244" stroke-linecap="round" stroke-linejoin="round"/>
<path d="M105.689 99.7764C106.273 98.5554 107.345 96.4319 107.6 96.4319C107.685 96.4319 108.368 96.59 109.352 96.846M116.678 104.076C117.633 103.121 118.43 100.219 118.111 99.9357C117.713 99.5822 116.752 99.1551 115.563 98.7225M107.441 100.413L109.352 96.846M109.352 96.846C109.91 96.9912 110.565 97.168 111.263 97.3654M109.352 101.688L111.263 97.3654M111.263 97.3654C111.981 97.5685 112.744 97.7933 113.493 98.028M111.263 102.802L113.493 98.028M113.493 98.028C114.214 98.254 114.921 98.4891 115.563 98.7225M113.811 103.121L115.563 98.7225" stroke="#002B5C" stroke-width="1.44589" stroke-linecap="round" stroke-linejoin="round"/>
<path d="M117.952 92.2911C116.585 89.7764 115.495 88.6687 112.856 88.6281C114.342 87.1947 116.614 84.2643 115.085 82.7354C113.556 81.2065 111.9 83.5317 110.626 84.328" stroke="#D27D51" stroke-width="1.27409" stroke-linecap="round" stroke-linejoin="round"/>
<path d="M124.004 85.7615C124.004 85.9208 123.048 91.3357 121.615 91.9727M121.615 83.2133C121.296 85.1776 120.978 88.1786 119.545 89.106" stroke="#D27D51" stroke-width="1.27409" stroke-linecap="round" stroke-linejoin="round"/>
<path d="M88.329 207.437L84.0289 208.552L83.6211 210.622M81.9585 219.063L83.6211 210.622M83.6211 210.622C89.3843 217.895 101.802 233.397 102.185 235.308C102.567 237.219 98.2032 257.764 95.1772 267.797M35.1357 288.342C35.4542 288.023 55.2026 246.297 56.636 241.519C57.4843 238.691 57.0204 225.134 56.6939 211.737M56.3175 199.155C56.4418 202.609 56.579 207.025 56.6939 211.737M56.6939 211.737C62.9852 209.014 66.0255 205.917 70.1732 196.289M85.303 193.581L84.666 201.385M91.992 192.148C91.5946 194.997 97.7268 199.983 101.388 199.952" stroke="#002B5C" stroke-width="1.65244" stroke-linecap="round" stroke-linejoin="round"/>
<path d="M63.6826 173.992C63.7062 173.451 63.7469 172.871 63.8032 172.24L69.2181 170.807C69.1238 171.498 69.0584 172.129 69.0201 172.718M63.6826 173.992L69.0201 172.718M63.6826 173.992C63.6512 174.713 63.6501 175.365 63.6826 175.973M69.0201 172.718C68.9652 173.565 68.9667 174.323 69.0201 175.037M63.6826 175.973L69.0201 175.037M63.6826 175.973C63.7338 176.929 63.8682 177.776 64.0986 178.611M69.0201 175.037C69.0842 175.893 69.223 176.687 69.4288 177.496M64.0986 178.611L69.4288 177.496M64.0986 178.611C64.2974 179.332 64.5678 180.044 64.918 180.811M69.4288 177.496C69.6101 178.209 69.8433 178.934 70.1234 179.726M64.918 180.811L70.1234 179.726M64.918 180.811C65.1512 181.321 65.4197 181.856 65.7261 182.433M70.1234 179.726C70.2843 180.181 70.4606 180.657 70.6514 181.166M65.7261 182.433C65.9643 182.882 66.2255 183.357 66.5107 183.867C67.944 183.548 70.8744 182.815 71.1292 182.433C70.9613 181.987 70.8019 181.567 70.6514 181.166M65.7261 182.433L70.6514 181.166" stroke="#002B5C" stroke-width="1.44589" stroke-linecap="round" stroke-linejoin="round"/>
<path d="M84.8252 177.655C87.1403 176.416 88.3904 175.641 90.5586 174.151M83.7104 175.266C86.609 173.958 88.0236 173.135 90.3994 171.603M82.7548 171.603C83.7104 170.966 85.8127 169.469 86.5771 168.577" stroke="#D27D51" stroke-width="1.859" stroke-linecap="round" stroke-linejoin="round"/>
<path d="M63.6438 138.477L67.4661 137.681L68.1031 139.592C66.357 139.626 65.379 139.566 63.6438 138.477Z" fill="#D27D51" stroke="#D27D51" stroke-width="1.27409" stroke-linecap="round" stroke-linejoin="round"/>
<path d="M154.334 142.183H141.298C140.3 140.33 140.068 139.204 140.548 136.96C138.69 136.18 137.134 135.972 136.353 133.818C135.571 131.664 136.441 131.049 138.451 130.226C137.992 128.065 138.683 127.369 140.848 126.635C140.558 124.437 141.094 123.82 143.096 123.642C141.847 120.798 139.739 114.872 141.298 113.915C143.246 112.717 148.34 125.288 151.038 128.73C153.196 131.483 154.135 139.589 154.334 142.183Z" fill="#FDD8BE" stroke="#FDD8BE" stroke-width="1.27409"/>
<path d="M180.772 145.687C181.25 142.555 182.793 135.312 183.001 128.646C183.32 118.453 192.876 109.535 200.52 114.949C201.794 114.312 204.82 113.898 206.731 117.338C209.12 121.638 208.802 126.416 207.368 131.035C205.935 135.653 202.431 144.413 203.387 152.217" stroke="#002B5C" stroke-width="1.65244" stroke-linecap="round" stroke-linejoin="round"/>
<path d="M185.231 144.731C185.55 143.616 186.346 141.228 186.505 140.909C186.664 140.591 196.22 142.183 196.857 142.342C197.367 142.47 197.282 143.988 197.176 144.731C196.698 145.952 197.59 149.445 204.98 153.65C211.55 157.388 219.446 168.79 223.654 175.787L235.717 171.646L243.68 180.406C239.805 185.502 230.652 195.599 225.046 195.217C219.44 194.835 211.228 185.821 207.822 181.361C207.768 182.206 207.628 182.956 207.368 183.591C206.222 186.394 205.298 189.749 204.98 191.076C192.748 193.242 176.419 192.616 169.783 192.032C168.764 190.63 168.63 178.495 168.69 172.602C161.936 179.945 151.007 189.128 144.301 185.343C136.402 180.884 138.886 155.349 141.116 143.139C145.628 143.033 154.717 142.884 154.971 143.139C155.226 143.394 156.989 156.835 157.838 163.524C160.015 161.294 165.292 155.911 168.986 152.217C172.681 148.522 181.356 145.687 185.231 144.731Z" fill="#34CDAA"/>
<path d="M157.838 163.524C160.015 161.294 165.292 155.911 168.986 152.217C172.681 148.522 181.356 145.687 185.231 144.731C185.55 143.616 186.346 141.228 186.505 140.909C186.664 140.591 196.22 142.183 196.857 142.342C197.367 142.47 197.282 143.988 197.176 144.731C196.698 145.952 197.59 149.445 204.98 153.65C211.55 157.388 219.446 168.79 223.654 175.787M157.838 163.524C158.093 165.69 157.944 166.975 157.838 167.346M157.838 163.524C156.989 156.835 155.226 143.394 154.971 143.139C154.717 142.884 145.628 143.033 141.116 143.139C138.886 155.349 136.402 180.884 144.301 185.343C151.007 189.128 161.936 179.945 168.69 172.602M171.853 168.939C170.963 170.046 169.893 171.295 168.69 172.602M168.69 172.602C168.63 178.495 168.764 190.63 169.783 192.032C176.419 192.616 192.748 193.242 204.98 191.076C205.298 189.749 206.222 186.394 207.368 183.591C207.628 182.956 207.768 182.206 207.822 181.361M206.572 166.072C206.572 171.81 208.067 177.547 207.822 181.361M223.654 175.787C224.179 176.66 224.646 177.464 225.046 178.176L223.654 175.787ZM223.654 175.787L235.717 171.646L243.68 180.406C239.805 185.502 230.652 195.599 225.046 195.217C219.44 194.835 211.228 185.821 207.822 181.361" stroke="#34CDAA" stroke-width="1.27409" stroke-linecap="round" stroke-linejoin="round"/>
<path d="M185.231 144.731C185.55 143.616 186.346 141.228 186.505 140.909C186.664 140.591 196.22 142.183 196.857 142.342C197.367 142.47 197.282 143.988 197.176 144.731M157.838 161.294C158.093 163.46 157.944 166.975 157.838 167.346M144.301 185.343C151.007 189.128 161.936 179.945 168.69 172.602C169.893 171.295 170.963 170.046 171.853 168.939M207.368 183.591C207.628 182.956 207.768 182.206 207.822 181.361C208.067 177.547 206.572 171.81 206.572 166.072M174.561 179.61C176.525 180.247 181.823 181.489 187.301 181.361M225.046 178.176C224.646 177.464 224.179 176.66 223.654 175.787L225.046 178.176Z" stroke="#002B5C" stroke-width="1.65244" stroke-linecap="round" stroke-linejoin="round"/>
<path d="M200.042 142.82C198.004 143.967 193.672 141.334 191.761 140.272C191.177 140.166 190.168 140.176 188.894 139.794C189.494 139.094 189.927 136.3 190.074 133.424C186.635 134.379 186.251 131.827 187.048 129.916C187.685 128.387 189.33 128.961 190.074 129.439V128.009C192.25 128.062 195.742 125.354 197.335 124.027C198.29 123.231 200.042 121.001 200.52 120.046C201.476 121.426 204.502 126.575 206.413 126.575C207.05 134.698 202.591 141.387 200.042 142.82Z" fill="#FDD8BE"/>
<path d="M190.074 129.439V128.009C192.25 128.062 195.742 125.354 197.335 124.027C198.29 123.231 200.042 121.001 200.52 120.046C201.476 121.426 204.502 126.575 206.413 126.575C207.05 134.698 202.591 141.387 200.042 142.82C198.004 143.967 193.672 141.334 191.761 140.272C191.177 140.166 190.168 140.176 188.894 139.794C189.494 139.094 189.927 136.3 190.074 133.424M190.074 129.439C189.33 128.961 187.685 128.387 187.048 129.916C186.251 131.827 186.635 134.379 190.074 133.424M190.074 129.439C190.212 130.781 190.16 131.72 190.074 133.424" stroke="#FDD8BE" stroke-width="1.27409"/>
<path d="M189.531 127.69C192.239 127.106 198.227 124.537 200.52 118.931C201.37 121.001 203.387 124.983 206.731 126.257" stroke="#002B5C" stroke-width="1.65244" stroke-linecap="round" stroke-linejoin="round"/>
<path d="M150.696 133.14C149.724 133.494 148.47 135.846 147.964 136.978C150.038 138.06 153.72 140.59 154.175 140.59C154.631 139.852 155.703 132.107 153.882 130.335C152.061 128.564 149.33 125.317 148.723 127.088C148.116 128.859 149.633 131.664 150.696 133.14Z" fill="#FDD8BE" stroke="#FDD8BE" stroke-width="1.27409"/>
<path d="M143.002 135.454C139.948 135.008 139.032 132.183 138.727 131.885L143.613 125.938C144.732 127.772 147.796 132.331 146.819 132.926C145.842 133.521 144.783 132.976 144.376 132.629C144.936 133.719 145.445 135.81 143.002 135.454Z" fill="#FDD8BE" stroke="#FDD8BE" stroke-width="1.27409"/>
<path d="M217.561 309.567C216.924 309.089 211.828 290.615 211.509 289.659C212.557 289.973 213.088 289.938 213.898 289.34C215.838 290.521 216.915 289.93 218.835 288.703C221.104 289.626 222.169 289.455 223.932 288.703C226.567 289 227.818 288.708 229.665 287.429C229.824 287.96 230.43 289.723 231.576 292.526C233.01 296.029 235.239 295.392 241.769 298.259C248.299 301.126 247.662 309.567 246.069 309.885C244.476 310.204 218.198 310.044 217.561 309.567Z" fill="#FFD97E" stroke="#FFD97E" stroke-width="1.27409" stroke-linecap="round" stroke-linejoin="round"/>
<path d="M131.56 309.407C129.649 308.133 125.827 287.907 126.464 285.837C127.101 283.766 135.542 277.237 135.542 277.237C135.051 277.932 135.052 278.248 136.179 278.511C135.397 280.596 135.28 281.737 138.886 283.448C139.233 284.878 139.663 285.61 141.912 286.474C143.768 288 144.854 288.264 146.849 287.907C147.118 289.358 147.794 289.465 148.76 289.978L144.938 296.189C151.369 298.826 152.101 302.426 151.786 310.045C151.786 310.045 133.471 310.682 131.56 309.407Z" fill="#FFD97E" stroke="#FFD97E" stroke-width="1.27409" stroke-linecap="round" stroke-linejoin="round"/>
<path d="M190.646 195.217L188.894 205.251M186.027 216.24C185.541 218.346 184.952 220.853 184.299 223.566M155.609 282.015C161.342 274.158 173.318 257.743 175.357 254.94C177.03 252.64 181.318 235.961 184.299 223.566M139.205 273.096C144.779 264.124 155.991 245.958 156.246 245.066C156.564 243.951 157.998 219.266 158.953 216.877C159.006 215.921 159.526 213.182 161.183 209.869C162.839 206.557 168.031 196.704 170.42 192.191C178.171 192.51 196.507 192.765 204.661 191.236C204.661 194.357 205.198 199.279 205.963 204.454M184.299 223.566L209.439 282.015M227.913 280.263C225.524 271.344 209.598 223.247 209.28 221.973C208.22 217.734 206.915 210.898 205.963 204.454M177.587 198.084C176.419 199.942 173.35 204.168 170.42 206.206M202.591 198.084C203.299 199.942 204.966 203.817 205.963 204.454M194.309 193.943C194.787 193.996 195.742 194.325 195.742 195.217C195.742 196.109 194.787 196.438 194.309 196.491C193.831 196.491 192.876 196.236 192.876 195.217C192.876 194.198 193.831 193.943 194.309 193.943Z" stroke="#002B5C" stroke-width="1.65244" stroke-linecap="round" stroke-linejoin="round"/>
<path d="M216.287 306.859C231.686 306.871 237.427 306.762 247.025 306.541M128.216 283.289C129.702 290.349 132.802 304.63 133.312 305.267C133.822 305.904 145.734 306.063 151.627 306.063" stroke="#002B5C" stroke-width="1.65244" stroke-linecap="round" stroke-linejoin="round"/>
<path d="M209.279 286.792C207.966 285.136 207.731 284.2 209.598 282.492C211.604 279.239 213.59 279.676 217.243 280.74C219.509 278.59 221.024 278.774 223.932 280.263C225.572 278.631 226.957 279.148 227.913 280.74C229.346 280.74 231.321 280.804 230.939 284.244C230.557 287.684 226.108 288.013 223.932 287.748C222.209 289.417 221.201 290.199 218.517 288.385C216.568 290.078 215.466 290.687 213.42 289.022C211.052 289.331 209.906 289.219 209.279 286.792Z" stroke="#002B5C" stroke-width="1.65244" stroke-linecap="round" stroke-linejoin="round"/>
<path d="M139.364 273.096C140.936 273.818 141.791 274.599 142.708 276.759C144.709 276.846 145.199 277.494 146.053 278.67C147.391 278.9 148.119 279.417 149.397 280.741C150.843 280.258 151.337 280.675 151.946 282.015C153.801 281.11 155.609 281.696 156.405 282.97C157.201 284.244 156.935 285.587 154.494 287.429C153.317 289.252 152.358 289.597 150.194 289.181C148.558 289.508 147.699 289.409 146.531 287.429C144.537 288.031 143.475 288.075 142.071 285.518C139.936 285.049 139.138 284.566 139.045 282.97C136.347 281.663 135.494 280.577 135.701 277.715C135.173 275.652 135.346 274.545 137.612 272.777C138.291 270.377 138.856 269.594 140.638 270.548" stroke="#002B5C" stroke-width="1.65244" stroke-linecap="round" stroke-linejoin="round"/>
<path d="M200.361 132.627C201.051 132.627 202.463 132.564 202.591 132.309C202.718 132.054 201.9 129.761 201.476 128.646M195.424 134.061L201.794 135.335C201.582 136.343 199.724 137.564 198.131 137.246C196.539 136.927 195.105 134.857 195.424 134.061Z" stroke="#E2A286" stroke-width="1.44589" stroke-linecap="round" stroke-linejoin="round"/>
<path d="M194.628 128.646C195.868 127.573 196.607 127.435 197.972 127.69M203.068 127.85C204.258 127.806 204.893 127.977 205.935 128.805" stroke="#002B5C" stroke-width="1.44589" stroke-linecap="round" stroke-linejoin="round"/>
<path d="M147.805 137.564C148.057 135.837 148.629 135.096 150.194 134.061C148.542 131.183 147.805 129.283 148.76 126.575M140.001 115.905C141.275 121.161 142.445 123.482 144.142 126.575M140.001 127.531C140.797 130.716 141.45 132.324 143.823 134.061M137.612 130.876C137.931 133.105 139.358 134.931 141.275 135.972" stroke="#E2A286" stroke-width="1.65244" stroke-linecap="round" stroke-linejoin="round"/>
<path d="M187.461 136.928C187.461 137.631 186.89 138.202 186.187 138.202C185.483 138.202 184.913 137.631 184.913 136.928C184.913 136.224 185.483 135.653 186.187 135.653C186.589 135.653 186.948 135.84 187.181 136.131C187.356 136.349 187.461 136.626 187.461 136.928Z" fill="#FFC742"/>
<path d="M187.181 136.131C186.948 135.84 186.589 135.653 186.187 135.653C185.483 135.653 184.913 136.224 184.913 136.928C184.913 137.631 185.483 138.202 186.187 138.202C186.89 138.202 187.461 137.631 187.461 136.928C187.461 136.626 187.356 136.349 187.181 136.131ZM187.181 136.131C187.646 135.335 188.576 133.456 188.576 132.309" stroke="#FFC742" stroke-width="1.23933" stroke-linecap="round" stroke-linejoin="round"/>
<path d="M204.343 130.079V131.194" stroke="#002B5C" stroke-width="1.44589" stroke-linecap="round" stroke-linejoin="round"/>
<path d="M197.017 129.761V130.875" stroke="#002B5C" stroke-width="1.44589" stroke-linecap="round" stroke-linejoin="round"/>
<path d="M302.217 306.656H289.157C292.569 299.819 295.33 297.844 300.943 295.827L302.217 306.656Z" fill="#00B189"/>
<path d="M281.513 283.086L282.309 287.067M298.235 287.386L297.439 283.086M267.657 306.816C278.593 306.975 300.719 307.294 301.739 307.294M268.931 300.962C268.688 301.264 268.474 301.57 268.294 301.879C266.064 305.701 267.02 309.205 270.842 310.001C274.664 310.797 302.376 310.957 302.535 310.001C302.694 309.045 301.42 287.704 299.191 287.704C296.961 287.704 291.546 291.845 289.635 291.527C287.724 291.208 286.609 290.89 285.016 292.801C286.768 288.182 285.016 287.704 282.309 287.704C279.601 287.704 279.92 288.341 278.964 291.527C278.807 292.053 278.471 292.583 278.01 293.119M268.931 300.962C270.364 303.153 274.505 302.274 277.531 300.962C279.952 299.912 275.14 298.375 272.431 297.738M268.931 300.962C269.821 299.85 271.091 298.778 272.431 297.738M272.431 297.738C273.408 296.979 274.424 296.237 275.358 295.508M275.358 295.508C277.704 295.66 278.945 296.026 280.875 297.738M275.358 295.508C276.398 294.697 277.337 293.902 278.01 293.119M278.01 293.119C279.982 293.786 281.045 294.264 282.787 295.508" stroke="#002B5C" stroke-width="1.65244" stroke-linecap="round" stroke-linejoin="round"/>
<path d="M303.331 129.08C302.567 128.571 301.845 120.374 301.579 116.339C304.605 114.269 303.511 109.463 300.464 110.287C299.568 110.53 299.35 112.517 298.235 110.606C297.343 109.077 297.863 104.66 298.235 102.643C297.279 103.068 294.54 104.235 291.227 105.51C287.915 106.784 285.282 104.66 284.379 103.439C284.273 103.652 283.997 106.21 283.742 114.747C283.487 123.283 288.308 124.249 290.75 123.665V128.284L289.157 129.717C292.107 135.169 301.38 134.753 303.331 129.08Z" fill="#E7956A" stroke="#E7956A" stroke-width="1.27409" stroke-linecap="round" stroke-linejoin="round"/>
<path d="M368.469 223.841C366.877 221.611 365.762 223.044 362.258 219.222C363.692 218.426 367.548 216.663 369.619 216.663C375.034 220.008 376.926 230.332 376.289 236.066C373.74 235.588 370.062 226.07 368.469 223.841Z" fill="#00B189"/>
<path d="M325.15 168.896C324.131 169.023 293.351 170.594 278.646 171.444L277.531 168.099L276.257 170.647C271.518 166.678 268.835 165.019 262.242 164.118L265.746 152.651C270.275 152.502 272.333 153.114 276.257 155.677C297.475 153.125 300.847 152.661 314.639 151.058L318.143 154.403C321.734 147.753 324.352 145.653 330.406 141.98L340.121 151.536C333.622 154.872 331.324 157.084 328.017 164.118L324.354 160.614C324.673 163.268 325.469 168.736 325.15 168.896Z" fill="#34CDAA" stroke="#34CDAA" stroke-width="1.27409" stroke-linecap="round" stroke-linejoin="round"/>
<path d="M297.438 285.315L281.63 283.559L281.162 281.689L297.438 281.493V285.315Z" fill="#002B5C"/>
<path d="M297.438 285.315L281.63 283.559L281.162 281.689L297.438 281.493V285.315Z" stroke="#002B5C" stroke-width="1.27409" stroke-linecap="round" stroke-linejoin="round"/>
<path d="M358.754 220.178C361.924 218.403 366.203 217.032 369.584 216.385M362.736 242.952C363.307 243.777 364.218 244.998 365.284 246.272M363.692 243.748C366.081 243.589 370.54 240.404 370.54 239.926M365.284 246.272C367.195 245.5 371.177 243.111 372.132 242.793C373.088 242.474 374.84 248.219 369.106 250.204M365.284 246.272C366.452 247.667 367.807 249.128 369.106 250.204M369.106 250.204C369.596 250.61 370.078 250.961 370.54 251.234C371.694 251.916 372.744 252.356 373.725 252.497M369.584 216.385C370.451 216.22 371.258 216.102 371.973 216.037C375.477 215.718 377.866 221.452 378.503 223.522C379.14 225.593 381.688 245.182 379.14 249.163C377.431 251.833 375.722 252.784 373.725 252.497M369.584 216.385C372.132 218.266 376.273 223.044 376.751 235.467C377.229 247.889 376.91 251.53 373.725 252.497" stroke="#002B5C" stroke-width="1.65244" stroke-linecap="round" stroke-linejoin="round"/>
<path d="M312.091 148.192C327.276 163.611 335.653 172.227 349.517 187.37C354.073 181.055 356.694 177.586 360.666 170.647C348.721 159.021 323.717 135.005 319.258 131.947C314.798 128.889 307.207 128.656 303.969 128.921C300.624 135.451 293.457 135.61 288.361 129.558C283.424 131.098 272.849 135.578 270.046 141.184C269.058 143.161 267.783 146.548 266.454 150.421M260.012 170.966C260.399 169.653 260.883 168.018 261.435 166.188M253.642 179.529C253.108 179.858 252.526 180.186 251.89 180.522L253.642 182.449M253.642 179.529L257.305 183.236M253.642 179.529C254.294 179.129 254.874 178.728 255.394 178.31M257.305 183.236C256.657 183.527 255.919 183.789 255.075 184.025L253.642 182.449M257.305 183.236C258.054 182.9 258.682 182.527 259.215 182.114M255.394 178.31L259.215 182.114M255.394 178.31C255.964 177.853 256.461 177.376 256.898 176.859M259.215 182.114C259.829 181.638 260.316 181.108 260.712 180.522M256.898 176.859L260.712 180.522M256.898 176.859C257.313 176.369 257.674 175.844 257.995 175.266M260.712 180.522C261.16 179.859 261.491 179.124 261.761 178.31M257.995 175.266L261.761 178.31M257.995 175.266C258.315 174.688 258.594 174.057 258.845 173.355M261.761 178.31C262.02 177.529 262.221 176.675 262.413 175.744M258.845 173.355C259.101 172.638 259.326 171.848 259.535 170.966L260.712 171.807M258.845 173.355L262.413 175.744M262.413 175.744C262.566 174.998 262.714 174.202 262.879 173.355L260.712 171.807M260.712 171.807C261.446 170.17 263.994 171.444 267.976 173.833M253.642 182.449C253.164 184.025 252.846 184.822 254.598 186.096C256.349 187.37 266.383 194.059 271.639 185.459C274.375 180.98 275.956 176.574 276.785 173.355M277.531 169.373C277.457 170.244 277.229 171.629 276.785 173.355M261.435 166.188C267.634 167.624 270.975 169.318 276.785 173.355M261.435 166.188C262.848 161.503 264.698 155.537 266.454 150.421M266.454 150.421C270.408 150.6 272.367 151.184 275.461 152.969" stroke="#002B5C" stroke-width="1.65244" stroke-linecap="round" stroke-linejoin="round"/>
<path d="M344.336 187.724C345.454 185.5 348.348 187.724 350.314 187.724C345.559 172.157 348.81 172.435 353.005 177.855C352.166 168.126 354.823 167.987 357.899 176.465C359.717 165.902 362.514 167.292 363.213 176.465C364.472 173.408 367.182 171.74 366.849 175.631C366.289 182.164 362.514 191.476 358.319 190.92C351.048 197.731 343.427 189.531 344.336 187.724Z" fill="#E7956A" stroke="#E7956A" stroke-width="1.27409" stroke-linecap="round" stroke-linejoin="round"/>
<path d="M246.475 161.888C244.054 161.761 239.733 164.596 237.875 166.029L248.068 178.292C250.35 176.487 255.011 172.622 255.394 171.603C255.871 170.329 255.871 165.87 254.597 164.118C253.323 162.366 249.501 162.047 246.475 161.888Z" fill="#FDD8BE" stroke="#FDD8BE" stroke-width="1.27409"/>
<path d="M251.89 179.725C255.265 177.506 256.983 175.936 259.057 171.285C257.995 170.594 255.696 169.447 255.553 170.488C255.341 172.029 253.906 173.132 253.164 172.877C253.272 173.772 251.811 174.739 250.616 174.311C250.51 175.213 249.883 176.986 248.227 176.859C246.156 176.699 245.463 170.017 245.36 168.896C245.157 166.684 243.442 166.528 242.653 167.462C241.305 164.619 240.63 164.956 239.467 166.507C238.708 163.154 238.11 162.674 236.441 166.666C235.714 165.88 234.372 166.341 234.53 170.01C234.702 173.991 237.238 177.655 240.901 179.725C243.831 181.382 248.811 179.885 250.934 178.929L251.89 179.725Z" fill="#E7956A" stroke="#E7956A" stroke-width="1.27409" stroke-linecap="round" stroke-linejoin="round"/>
<path d="M325.946 186.733C324.927 186.86 295.474 189.546 280.875 190.874C276.363 204.358 267.657 230.53 266.86 238.652C266.064 246.774 274.346 282.13 275.62 282.13C276.894 282.13 300.305 282.927 300.465 282.13C300.624 281.334 291.546 243.589 291.387 242.156C291.227 240.722 301.739 209.029 302.535 209.507C303.331 209.985 317.665 250.756 327.858 256.967C338.05 263.178 363.373 241.837 364.647 240.563C367.514 232.6 359.073 219.222 357.799 219.7C356.779 220.082 344.315 226.017 338.21 228.937C334.547 214.816 326.966 186.605 325.946 186.733Z" fill="#FFBCBA" stroke="#FFBCBA" stroke-width="1.27409" stroke-linecap="round" stroke-linejoin="round"/>
<path d="M298.076 111.084C297.566 109.937 298.5 104.66 299.031 102.165C293.838 105.883 286.787 105.315 284.22 103.439C277.155 98.2775 282.25 92.6242 290.59 94.5205C288.739 90.9847 290.538 91.5796 294.413 93.2464C296.986 89.4762 298.517 92.5656 301.261 98.8206C302.167 97.8033 303.053 98.3122 302.694 101.528C305.625 103.184 304.977 109.332 304.287 111.88C304.287 111.296 303.777 109.396 301.739 109.013C299.19 108.536 298.713 112.517 298.076 111.084Z" fill="#D4E0EC"/>
<path d="M298.076 111.084C297.566 109.937 298.5 104.66 299.031 102.165C293.838 105.883 286.787 105.315 284.22 103.439C277.155 98.2775 282.25 92.6242 290.59 94.5205C288.739 90.9847 290.538 91.5796 294.413 93.2464C296.986 89.4762 298.517 92.5656 301.261 98.8206C302.167 97.8033 303.053 98.3122 302.694 101.528C305.625 103.184 304.977 109.332 304.287 111.88C304.287 111.296 303.777 109.396 301.739 109.013C299.19 108.536 298.713 112.517 298.076 111.084Z" stroke="#D4E0EC" stroke-width="1.27409" stroke-linecap="round" stroke-linejoin="round"/>
<path d="M236.442 166.347C236.452 169.046 236.632 170.524 237.556 173.036" stroke="#B15E2B" stroke-width="1.27409" stroke-linecap="round" stroke-linejoin="round"/>
<path d="M364.966 307.612C366.877 306.338 369.744 308.09 367.992 310.16" stroke="#002B5C" stroke-width="1.27409" stroke-linecap="round" stroke-linejoin="round"/>
<path d="M353.658 188.166C355.546 187.752 356.404 188.145 357.799 189.281C358.17 187.697 358.569 186.882 360.188 185.777" stroke="#B15E2B" stroke-width="1.65244" stroke-linecap="round" stroke-linejoin="round"/>
<path d="M352.225 176.381L353.817 183.866M358.277 174.47L358.754 181.955M363.851 174.151L362.417 181.477" stroke="#B15E2B" stroke-width="1.65244" stroke-linecap="round" stroke-linejoin="round"/>
<path d="M319.735 188.007C320.598 190.633 321.622 193.741 322.727 197.085M360.506 223.522C354.242 226.283 341.522 232.281 340.758 234.193C339.802 236.581 339.165 234.193 338.369 233.555C337.573 232.918 336.458 236.263 335.343 234.193C334.61 232.832 327.81 212.465 322.727 197.085M296.324 190.396V199.314M296.324 205.685L299.191 207.596M304.924 216.674L302.057 209.507L299.191 207.596M299.191 207.596C294.784 218.426 285.972 240.945 285.972 244.385C285.972 247.825 292.13 271.3 295.209 282.608M277.69 199.314C281.922 197.622 283.824 196.224 284.766 190.751M311.008 188.007C313.756 192.981 317.13 195.601 322.727 197.085" stroke="#002B5C" stroke-width="1.65244" stroke-linecap="round" stroke-linejoin="round"/>
<path d="M274.983 148.988C275.15 150.302 275.334 151.748 275.53 153.288M324.513 160.773C324.899 163.619 325.372 167.461 325.763 171.284M278.23 174.31C279.34 182.87 280.27 189.886 280.398 190.396C280.716 191.67 324.035 186.414 325.946 185.936C326.947 185.686 326.502 178.517 325.763 171.284M278.23 174.31L325.763 171.284M278.23 174.31C277.339 167.442 276.332 159.58 275.53 153.288M275.53 153.288L312.569 148.988M330.087 166.347C333.003 159.528 335.332 156.749 342.191 153.288M316.232 152.492C319.719 146.88 321.672 143.732 328.495 140.228" stroke="#002B5C" stroke-width="1.65244" stroke-linecap="round" stroke-linejoin="round"/>
<path d="M285.176 130.673C285.952 131.753 286.75 132.703 287.565 133.526M308.268 129.08C307.648 130.064 307.003 130.967 306.337 131.788M287.565 133.526L289.794 131.469M287.565 133.526C288.399 134.369 289.25 135.078 290.113 135.657M290.113 135.657L291.865 132.903M290.113 135.657C291.11 136.326 292.122 136.821 293.139 137.147M293.139 137.147L294.254 133.858M293.139 137.147C294.41 137.554 295.69 137.697 296.961 137.586M296.961 137.586V134.177M296.961 137.586C298.297 137.47 299.622 137.072 300.917 136.406M300.917 136.406L299.509 133.526M300.917 136.406C301.902 135.899 302.869 135.236 303.809 134.423M303.809 134.423L301.739 132.425M303.809 134.423C304.678 133.672 305.523 132.792 306.337 131.788M306.337 131.788L303.172 130.673" stroke="#002B5C" stroke-width="1.65244" stroke-linecap="round" stroke-linejoin="round"/>
<path d="M288.042 118.728C290.108 118.527 291.138 118.026 292.502 115.702M288.042 113.791C288.913 114.14 289.402 114.111 290.272 113.791" stroke="#B15E2B" stroke-width="1.44589" stroke-linecap="round" stroke-linejoin="round"/>
<path d="M292.502 108.058C293.65 108.333 294.117 108.668 294.731 109.491M284.539 109.173C285.427 108.5 285.943 108.265 286.927 108.376" stroke="#002B5C" stroke-width="1.44589" stroke-linecap="round" stroke-linejoin="round"/>
<path d="M300.465 114.269L302.217 111.88" stroke="#B15E2B" stroke-width="1.44589" stroke-linecap="round" stroke-linejoin="round"/>
<path d="M252.686 177.177C251.253 179.088 249.501 180.044 246.794 180.522" stroke="#B15E2B" stroke-width="1.27409" stroke-linecap="round" stroke-linejoin="round"/>
<path d="M243.29 168.418C243.278 170.615 243.437 171.891 244.245 174.31M239.786 166.507C239.715 169.474 239.848 171.12 240.742 173.992" stroke="#B15E2B" stroke-width="1.65244" stroke-linecap="round" stroke-linejoin="round"/>
<path d="M248.705 166.347C249.646 169.25 249.857 171.087 250.297 174.151M252.208 166.507C252.808 169.019 252.945 170.461 253.164 173.036M254.12 165.551C254.689 167.87 254.872 169.201 255.075 171.603" stroke="#E2A286" stroke-width="1.65244" stroke-linecap="round" stroke-linejoin="round"/>
<path d="M292.979 111.084V112.199" stroke="#002B5C" stroke-width="1.44589" stroke-linecap="round" stroke-linejoin="round"/>
<path d="M285.654 111.402V112.517" stroke="#002B5C" stroke-width="1.44589" stroke-linecap="round" stroke-linejoin="round"/>
<path d="M295.209 121.913C293.502 123.136 292.552 123.857 290.75 124.621C290.756 125.354 290.624 126.681 290.75 127.01C290.75 127.01 293.511 123.612 295.209 121.913Z" fill="#B15E2B" stroke="#B15E2B" stroke-width="1.27409" stroke-linecap="round" stroke-linejoin="round"/>
<path d="M324.991 166.188C321.062 160.72 312.951 149.498 311.931 148.351L324.354 160.614L324.991 166.188Z" fill="#002B5C"/>
<path d="M275.779 176.062V156.314L277.372 170.01L275.779 176.062Z" fill="#002B5C"/>
<path d="M324.991 166.188C321.062 160.72 312.951 149.498 311.931 148.351L324.354 160.614L324.991 166.188Z" stroke="#002B5C" stroke-width="1.27409" stroke-linecap="round" stroke-linejoin="round"/>
<path d="M275.779 176.062V156.314L277.372 170.01L275.779 176.062Z" stroke="#002B5C" stroke-width="1.27409" stroke-linecap="round" stroke-linejoin="round"/>
<path d="M397.677 134.289L387.601 137.999C385.638 136.195 381.432 132.434 380.316 131.816C378.921 131.043 371.17 128.26 371.945 126.714C372.72 125.168 375.554 126.714 379.696 127.844C378.146 126.762 378.146 123.825 380.316 123.825C378.921 122.897 379.231 120.578 380.936 120.269C379.541 118.878 379.851 116.868 381.711 116.559C382.166 116.484 382.992 117.009 383.995 117.295C388.564 120.384 391.405 124.138 383.283 121.277C388.223 124.848 389.555 127.008 382.402 125.417C384.1 126.306 385.38 127.063 386.236 127.683C386.811 127.065 387.177 126.495 387.339 126.373C389.251 126.373 390.365 122.391 391.322 119.758C391.322 119.964 391.415 119.913 391.787 118.058C392.252 115.739 394.267 116.666 396.592 121.458C398.452 125.292 398.09 131.609 397.677 134.289Z" fill="#FDC48F"/>
<path d="M381.853 129.399C385.11 130.036 386.918 126.691 387.339 126.373C389.251 126.373 390.365 122.391 391.322 119.758C391.322 119.964 391.415 119.913 391.787 118.058C392.252 115.739 394.267 116.666 396.592 121.458C398.452 125.292 398.09 131.609 397.677 134.289L387.601 137.999C385.638 136.195 381.432 132.434 380.316 131.816C378.921 131.043 371.17 128.26 371.945 126.714C372.72 125.168 375.554 126.714 379.696 127.844C378.146 126.762 378.146 123.825 380.316 123.825C378.921 122.897 379.231 120.578 380.936 120.269C379.541 118.878 379.851 116.868 381.711 116.559C382.166 116.484 382.992 117.009 383.995 117.295C388.564 120.384 391.405 124.138 383.283 121.277C388.223 124.848 389.555 127.008 382.402 125.417C389.354 129.059 389.29 130.474 381.853 129.399ZM381.853 129.399C381.708 128.529 381.772 130.518 381.853 129.399Z" stroke="#FDC48F" stroke-width="1.27409" stroke-linecap="round" stroke-linejoin="round"/>
<path d="M483.215 213.329C487.993 219.063 484.171 230.53 489.267 231.485C494.363 232.441 494.204 215.718 483.215 213.329Z" stroke="#002B5C" stroke-width="1.65244" stroke-linecap="round" stroke-linejoin="round"/>
<path d="M428.907 308.249C429.703 306.338 419.829 278.627 419.351 277.671C412.566 279.874 408.375 280.01 400.717 279.742C402.469 282.874 404.03 289.966 396.258 293.279C386.543 297.42 387.817 305.86 388.454 308.249C389.091 310.638 393.869 310.638 409.636 310.638C425.403 310.638 428.11 310.16 428.907 308.249Z" fill="#B4D5FA" stroke="#B4D5FA" stroke-width="1.27409" stroke-linecap="round" stroke-linejoin="round"/>
<path d="M479.552 274.008C485.689 270.047 487.86 266.926 489.585 259.834C492.611 262.223 500.574 270.027 502.963 271.938C505.352 273.849 506.372 275.294 505.511 280.219C502.645 296.623 495.637 308.09 489.585 305.86C483.533 303.631 484.648 291.049 484.967 285.634C485.221 281.302 481.463 276.078 479.552 274.008Z" fill="#B4D5FA" stroke="#B4D5FA" stroke-width="1.27409" stroke-linecap="round" stroke-linejoin="round"/>
<path d="M391.002 287.704L389.728 286.749L414.255 265.886L415.688 266.523L416.006 268.275L391.958 289.456L391.002 287.704Z" fill="#002B5C"/>
<path d="M436.87 247.411L435.914 246.615L455.185 230.052L456.777 230.53V232.441L437.666 249.322L436.87 247.411Z" fill="#002B5C"/>
<path d="M437.666 213.966C437.666 212.692 435.914 209.666 435.914 209.666L439.099 212.533L439.896 216.833L435.914 220.178C435.914 220.178 437.666 215.241 437.666 213.966Z" fill="#002B5C"/>
<path d="M469.04 221.611C469.449 220.211 469.418 219.083 469.996 217.152L471.27 215.878L472.863 217.629L469.04 221.611Z" fill="#002B5C"/>
<path d="M391.002 287.704L389.728 286.749L414.255 265.886L415.688 266.523L416.006 268.275L391.958 289.456L391.002 287.704Z" stroke="#002B5C" stroke-width="1.27409" stroke-linecap="round" stroke-linejoin="round"/>
<path d="M436.87 247.411L435.914 246.615L455.185 230.052L456.777 230.53V232.441L437.666 249.322L436.87 247.411Z" stroke="#002B5C" stroke-width="1.27409" stroke-linecap="round" stroke-linejoin="round"/>
<path d="M437.666 213.966C437.666 212.692 435.914 209.666 435.914 209.666L439.099 212.533L439.896 216.833L435.914 220.178C435.914 220.178 437.666 215.241 437.666 213.966Z" stroke="#002B5C" stroke-width="1.27409" stroke-linecap="round" stroke-linejoin="round"/>
<path d="M469.04 221.611C469.449 220.211 469.418 219.083 469.996 217.152L471.27 215.878L472.863 217.629L469.04 221.611Z" stroke="#002B5C" stroke-width="1.27409" stroke-linecap="round" stroke-linejoin="round"/>
<path d="M466.174 193.422C468.032 199.952 471.334 217.884 469.678 237.378C473.818 240.563 478.755 246.137 484.807 251.711C490.859 257.286 490.382 261.745 484.807 268.752C479.233 275.76 475.252 276.556 470.315 272.097C465.378 267.638 444.196 252.986 443.24 240.404C442.52 230.915 440.984 221.426 440.204 216.515M434.481 208.552C436.18 209.507 439.609 211.801 439.736 213.329C439.776 213.799 439.949 214.914 440.204 216.515M424.925 188.803C423.651 188.963 393.71 223.681 391.162 233.237C388.614 242.793 394.188 272.415 394.984 275.76C395.78 279.104 400.08 279.901 404.38 279.423C408.681 278.945 414.414 278.627 417.599 277.83C420.784 277.034 422.695 274.008 421.262 266.841C421.122 266.139 420.941 265.596 420.784 264.612M440.204 216.515L417.599 237.378C418.139 242.775 419.315 252.527 420.307 259.834" stroke="#002B5C" stroke-width="1.65244" stroke-linecap="round" stroke-linejoin="round"/>
<path d="M484.011 208.552L473.818 203.774C473.103 205.751 471.812 210.374 468.722 212.055C466.19 213.433 465.324 217.842 465.696 219.7L471.429 214.604L473.818 217.152C472.226 218.744 468.149 222.917 467.129 223.681C468.563 225.752 469.996 224.637 472.226 224.637C473.341 225.274 474.296 226.07 475.73 225.115C477.004 225.911 479.074 224.159 479.87 223.681C480.826 223.681 482.578 222.089 483.533 220.337C484.489 218.585 484.33 214.763 483.533 213.17C482.896 211.896 483.586 209.56 484.011 208.552Z" fill="#FDC48F"/>
<path d="M484.011 208.552L473.818 203.774C473.103 205.751 471.812 210.374 468.722 212.055C466.19 213.433 465.324 217.842 465.696 219.7L471.429 214.604L473.818 217.152C472.226 218.744 468.149 222.917 467.129 223.681C468.563 225.752 469.996 224.637 472.226 224.637C473.341 225.274 474.296 226.07 475.73 225.115C477.004 225.911 479.074 224.159 479.87 223.681C480.826 223.681 482.578 222.089 483.533 220.337C484.489 218.585 484.33 214.763 483.533 213.17C482.896 211.896 483.586 209.56 484.011 208.552Z" stroke="#FDC48F" stroke-width="1.27409" stroke-linecap="round" stroke-linejoin="round"/>
<path d="M432.092 142.777C430.977 141.025 431.508 119.578 433.207 115.543L443.24 137.521C442.757 137.058 433.964 141.761 432.092 142.777Z" fill="#002B5C" stroke="#002B5C" stroke-width="1.27409" stroke-linecap="round" stroke-linejoin="round"/>
<path d="M434.162 115.543C438.239 115.161 446.266 116.764 449.77 117.614C449.002 122.295 453.044 134.154 454.07 138.477C454.07 138.477 447.222 143.095 444.196 147.236C443.081 142.618 440.214 140.069 440.214 140.069L441.17 131.151C440.904 131.469 439.609 131.915 436.551 131.151C431.455 129.399 433.684 123.028 434.162 115.543Z" fill="#FDC48F"/>
<path d="M434.162 115.543C438.239 115.161 446.266 116.764 449.77 117.614C449.002 122.295 453.044 134.154 454.07 138.477C454.07 138.477 447.222 143.095 444.196 147.236C443.081 142.618 440.214 140.069 440.214 140.069L441.17 131.151C440.904 131.469 439.609 131.915 436.551 131.151C431.455 129.399 433.684 123.028 434.162 115.543Z" stroke="#FDC48F" stroke-width="1.27409" stroke-linecap="round" stroke-linejoin="round"/>
<path d="M466.174 192.785L425.403 188.326C425.403 184.238 425.339 175.521 425.085 173.355C422.791 171.571 423.28 167.622 423.81 165.87C420.678 168.949 412.63 174.916 405.495 174.151C396.577 173.196 388.932 151.536 387.499 147.873C386.352 144.943 387.34 143.255 387.977 142.777C387.552 141.609 386.862 139.177 387.499 138.795C388.295 138.317 396.736 134.973 398.329 134.654C399.921 134.336 399.603 135.132 401.195 138.477C403.361 138.094 408.468 148.51 410.751 153.766C416.378 149.784 436.52 140.292 439.577 139.91C439.843 140.441 440.915 141.63 443.081 142.14L443.718 149.466L446.585 142.458L449.611 141.662C452 140.866 453.895 140.122 455.504 137.999C458.158 138.742 464.836 140.993 470.315 144.051C477.163 147.873 492.134 166.507 494.523 172.24C496.911 177.974 490.382 200.27 489.585 201.863C488.948 203.137 487.515 203.349 486.878 203.296L484.648 208.711L473.022 202.978L474.774 198.837C474.084 198.306 472.608 196.894 472.226 195.492C471.748 193.74 477.163 175.903 476.208 175.107C475.252 174.311 470.633 168.418 470.315 169.533C470.06 170.425 467.448 185.406 466.174 192.785Z" fill="#FFD97E" stroke="#FFD97E" stroke-width="1.27409" stroke-linecap="round" stroke-linejoin="round"/>
<path d="M441.17 133.539L440.692 132.584C443.338 132.379 444.231 131.469 444.674 130.991C444.037 131.788 443.334 132.166 441.17 133.539Z" fill="#D27D51" stroke="#D27D51" stroke-width="1.27409" stroke-linecap="round" stroke-linejoin="round"/>
<path d="M444.674 97.3873C447.54 97.7059 453.911 99.2985 454.707 106.465C455.298 111.785 455.295 113.129 455.207 113.168C455.745 113.499 456.811 114.446 456.937 115.702C457.096 117.295 457.415 119.047 456.618 119.206C455.822 119.365 440.374 113.632 433.844 114.906C432.092 115.384 431.455 108.695 433.207 107.899C434.441 107.337 434.778 107.312 434.804 107.386C435.295 103.925 437.943 97.1334 444.674 97.3873Z" fill="#4A94E8" stroke="#4A94E8" stroke-width="1.27409" stroke-linecap="round" stroke-linejoin="round"/>
<path d="M437.642 119.762C438.205 117.581 436.024 117.018 433.087 117.494C430.396 118.637 432.454 121.75 433.844 122.225C435.233 122.699 437.08 121.943 437.642 119.762Z" fill="#002B5C" stroke="#002B5C" stroke-width="1.27409" stroke-linecap="round" stroke-linejoin="round"/>
<path d="M440.533 104.873C444.565 104.724 446.686 104.338 449.929 102.484M434.162 106.784C434.936 106.786 435.678 106.799 436.392 106.823M455.503 112.517C454.958 112.219 454.428 111.935 453.911 111.665M433.207 115.543C434.093 115.504 434.94 115.477 435.755 115.464M455.981 119.525C454.981 119.121 454.029 118.752 453.114 118.415M436.392 106.823C435.405 109.896 435.139 111.736 435.755 115.464M436.392 106.823C437.999 106.878 439.467 106.993 440.851 107.176M435.755 115.464C437.226 115.439 438.592 115.459 439.896 115.528M440.851 107.176C439.682 110.161 439.402 111.965 439.896 115.528M440.851 107.176C442.767 107.43 444.523 107.816 446.266 108.362M439.896 115.528C441.678 115.623 443.341 115.812 444.992 116.112M446.266 108.362C445.017 111.003 444.656 112.657 444.992 116.112M446.266 108.362C447.732 108.822 449.189 109.394 450.725 110.095M444.992 116.112C446.515 116.388 448.027 116.758 449.611 117.235M450.725 110.095C449.733 112.608 449.295 114.076 449.611 117.235M450.725 110.095C451.744 110.56 452.797 111.082 453.911 111.665M449.611 117.235C450.733 117.573 451.891 117.965 453.114 118.415M453.911 111.665C453.33 114.12 453.072 115.542 453.114 118.415M438.303 95.9539H441.648M439.896 91.176L442.603 93.4057M444.992 89.1057L445.151 92.6094M447.381 94.0428L449.929 91.6538M448.814 96.2724H451.999" stroke="#002B5C" stroke-width="1.65244" stroke-linecap="round" stroke-linejoin="round"/>
<path d="M425.244 158.703C423.917 161.782 421.549 168.449 422.696 170.488C423.842 172.527 424.235 173.673 424.288 173.992M464.9 162.843L475.73 175.744M387.18 142.777C387.966 142.413 388.704 142.079 389.41 141.769M401.832 137.68C401.279 137.815 400.75 137.947 400.24 138.077M388.295 138.077C388.423 138.332 389.038 140.565 389.41 141.769M389.41 141.769C390.129 141.454 390.814 141.164 391.48 140.893M390.366 137.281L391.48 140.893M391.48 140.893C392.13 140.63 392.763 140.385 393.392 140.155M392.277 136.484L393.392 140.155M393.392 140.155C394.132 139.883 394.868 139.63 395.621 139.388M394.506 135.529L395.621 139.388M395.621 139.388C396.44 139.125 397.279 138.875 398.169 138.628M396.895 134.732L398.169 138.628M398.169 138.628C398.828 138.444 399.514 138.262 400.24 138.077M398.488 134.255L400.24 138.077M473.182 197.881C474.09 198.355 474.933 198.789 475.73 199.191M487.356 203.774C486.451 203.523 485.61 203.273 484.808 203.016M475.73 199.191L473.978 204.092M475.73 199.191C476.511 199.585 477.249 199.948 477.959 200.285M476.048 205.048L477.959 200.285M477.959 200.285C478.726 200.648 479.462 200.982 480.189 201.294M478.278 206.322L480.189 201.294M480.189 201.294C480.933 201.613 481.669 201.909 482.419 202.19M480.508 207.437L482.419 202.19M482.419 202.19C483.191 202.478 483.978 202.751 484.808 203.016M482.896 208.551L484.808 203.016" stroke="#002B5C" stroke-width="1.65244" stroke-linecap="round" stroke-linejoin="round"/>
<path d="M391.64 109.522C391.912 108.43 386.254 105.72 385.104 109.124C386.192 110.996 390.335 111.31 391.64 109.522Z" fill="white"/>
<path d="M379.377 140.228C380.268 139.209 384.42 137.733 386.225 137.043C388.348 138.158 393.519 140.451 392.117 140.706C390.716 140.961 382.509 140.441 379.377 140.228Z" fill="white"/>
<path d="M385.104 109.124C386.254 105.72 391.912 108.43 391.64 109.522M385.104 109.124C386.192 110.996 390.335 111.31 391.64 109.522M385.104 109.124C385.156 109.262 384.644 112.687 383.995 117.136M386.225 137.043C384.42 137.733 380.268 139.209 379.377 140.228C382.509 140.441 390.716 140.961 392.117 140.706C393.519 140.451 388.348 138.158 386.225 137.043ZM386.225 137.043C386.543 130.354 386.225 137.043 386.543 130.354M391.64 109.522C391.488 110.131 391.458 126.146 386.862 126.532L386.862 127.488" stroke="#002B5C" stroke-width="1.44589" stroke-linecap="round" stroke-linejoin="round"/>
<path d="M454.548 138.077C450.598 136.415 449.929 123.742 450.089 117.613L455.822 119.365C462.844 128.551 464.086 132.463 464.581 139.91L456.459 137.043C456.618 136.831 454.548 138.077 454.548 138.077Z" fill="#002B5C" stroke="#002B5C" stroke-width="1.27409" stroke-linecap="round" stroke-linejoin="round"/>
<path d="M437.666 126.373C439.288 126.089 440.116 125.595 441.489 124.302M438.781 117.613C438.038 118.941 437.093 121.722 437.348 122.232C437.603 122.742 438.463 122.444 439.1 122.232" stroke="#D27D51" stroke-width="1.44589" stroke-linecap="round" stroke-linejoin="round"/>
<path d="M449.929 120.64L447.222 119.843L440.374 119.206C438.781 118.091 437.825 118.251 437.188 118.569" stroke="#002B5C" stroke-width="1.44589" stroke-linecap="round" stroke-linejoin="round"/>
<path d="M441.011 120.002C440.692 117.773 442.922 117.454 445.788 118.25C448.336 119.684 445.948 122.551 444.514 122.869C443.081 123.188 441.329 122.232 441.011 120.002Z" fill="#002B5C" stroke="#002B5C" stroke-width="1.27409" stroke-linecap="round" stroke-linejoin="round"/>
<path d="M365.202 307.294C366.731 306.402 436.233 246.19 470.792 216.196C472.066 215.09 473.341 217.152 472.863 217.948C472.385 218.744 372.528 307.612 368.547 310.16C364.565 312.708 363.291 308.408 365.202 307.294Z" stroke="#002B5C" stroke-width="1.27409" stroke-linecap="round" stroke-linejoin="round"/>
<path d="M485.922 302.516C488.789 304.427 494.542 305.322 499.46 292.482C505.193 277.512 503.6 273.849 503.123 271.46" stroke="#002B5C" stroke-width="1.65244" stroke-linecap="round" stroke-linejoin="round"/>
<path d="M388.295 306.497C404.292 306.886 413.141 306.699 428.588 305.223M415.847 291.527L412.821 278.786" stroke="#002B5C" stroke-width="1.65244" stroke-linecap="round" stroke-linejoin="round"/>
<path d="M389.41 286.908C391.136 287.398 391.556 288.121 391.48 290.094M414.255 265.249C415.98 265.739 416.401 266.462 416.325 268.434M435.118 247.252C436.87 247.252 437.825 248.049 437.029 249.96M455.026 229.893C456.459 229.574 457.415 230.53 456.937 232.282" stroke="#002B5C" stroke-width="1.27409" stroke-linecap="round" stroke-linejoin="round"/>
<path d="M469.04 224.956C472.166 225.87 473.796 224.812 476.526 220.655M474.933 226.07C477.003 224.848 477.926 223.514 479.392 220.655M479.392 224.956C480.509 223.669 480.951 222.9 481.463 221.452" stroke="#D27D51" stroke-width="1.65244" stroke-linecap="round" stroke-linejoin="round"/>
<path d="M389.251 133.38C389.091 131.363 389.442 126.691 392.117 124.143C392.117 123.347 390.684 120.639 391.321 117.932M380.013 128.921C391.799 131.947 389.569 128.125 380.332 124.621C390.206 128.762 390.525 125.099 381.128 120.321C389.083 124.749 393.232 121.914 383.199 116.976" stroke="#D27D51" stroke-width="1.65244" stroke-linecap="round" stroke-linejoin="round"/>
<path d="M240.424 228.054C244.388 226.255 245.771 224.123 247.115 218.744C247.202 223.308 248.471 225.185 253.224 227.181C249.349 229.619 247.877 231.552 247.697 235.617C246.05 231.052 245.281 228.978 240.424 228.054Z" stroke="#002B5C" stroke-width="1.65244" stroke-linecap="round" stroke-linejoin="round"/>
<path d="M21.28 104.785C25.2442 102.987 26.627 100.854 27.9711 95.4759C28.0583 100.04 29.3272 101.916 34.0804 103.913C30.2053 106.351 28.7332 108.284 28.553 112.349C26.9064 107.784 26.1374 105.709 21.28 104.785Z" stroke="#002B5C" stroke-width="1.65244" stroke-linecap="round" stroke-linejoin="round"/>
<path d="M342.351 104.785C346.315 102.987 347.698 100.854 349.042 95.4759C349.129 100.04 350.398 101.916 355.151 103.913C351.276 106.351 349.804 108.284 349.624 112.349C347.977 107.784 347.208 105.709 342.351 104.785Z" stroke="#002B5C" stroke-width="1.65244" stroke-linecap="round" stroke-linejoin="round"/>
<path d="M253.164 204.689C254.246 204.131 255.495 202.576 255.862 200.907C255.886 202.323 256.814 204.069 258.11 204.689C257.053 205.445 255.911 206.627 255.862 207.889C255.413 206.472 254.489 204.975 253.164 204.689Z" stroke="#002B5C" stroke-width="1.65244" stroke-linecap="round" stroke-linejoin="round"/>
<path d="M33.0653 241.319C34.1464 240.761 35.3963 239.206 35.7629 237.537C35.7867 238.953 36.7146 240.699 38.0109 241.319C36.954 242.076 35.8121 243.257 35.7629 244.519C35.3138 243.102 34.39 241.606 33.0653 241.319Z" stroke="#002B5C" stroke-width="1.65244" stroke-linecap="round" stroke-linejoin="round"/>
<path d="M209.208 94.0248C210.531 94.568 212.061 96.081 212.509 97.7055C212.538 96.327 213.674 94.6277 215.26 94.0248C213.967 93.2883 212.569 91.2889 212.509 90.061C211.96 91.4398 210.829 93.7457 209.208 94.0248Z" stroke="#002B5C" stroke-width="1.65244" stroke-linecap="round" stroke-linejoin="round"/>
<path d="M358.277 119.507C359.6 120.05 361.129 121.563 361.578 123.187C361.607 121.809 362.742 120.11 364.329 119.507C363.035 118.77 361.638 116.771 361.578 115.543C361.028 116.922 359.898 119.228 358.277 119.507Z" stroke="#002B5C" stroke-width="1.65244" stroke-linecap="round" stroke-linejoin="round"/>
<path d="M402.87 200.73C404.193 201.273 405.723 202.786 406.171 204.411C406.2 203.032 407.336 201.333 408.922 200.73C407.629 199.994 406.231 197.994 406.171 196.766C405.622 198.145 404.491 200.451 402.87 200.73Z" stroke="#002B5C" stroke-width="1.65244" stroke-linecap="round" stroke-linejoin="round"/>
<path d="M372.292 271.358C374.69 270.128 375.616 267.785 376.365 265.248C376.415 267.208 377.919 269.713 380.729 271.358C379.093 272.156 377.094 273.176 376.365 275.721C375.56 273.836 375.295 272.307 372.292 271.358Z" stroke="#002B5C" stroke-width="1.65244" stroke-linecap="round" stroke-linejoin="round"/>
<path d="M491.738 129.297C494.136 128.067 495.062 125.724 495.811 123.187C495.861 125.147 497.365 127.652 500.175 129.297C498.538 130.095 496.54 131.115 495.811 133.66C495.006 131.775 494.741 130.246 491.738 129.297Z" stroke="#002B5C" stroke-width="1.65244" stroke-linecap="round" stroke-linejoin="round"/>
<path d="M108.555 160.83C110.953 159.601 111.879 157.258 112.628 154.721C112.678 156.681 114.182 159.186 116.992 160.83C115.355 161.629 113.357 162.648 112.628 165.194C111.823 163.309 111.558 161.779 108.555 160.83Z" stroke="#002B5C" stroke-width="1.65244" stroke-linecap="round" stroke-linejoin="round"/>
<path d="M34.0207 93.3036C36.4185 92.0741 37.3446 89.731 38.0936 87.1944C38.1434 89.154 39.6476 91.6587 42.4573 93.3036C40.8212 94.1019 38.8224 95.1216 38.0936 97.6674C37.2889 95.7818 37.0236 94.2526 34.0207 93.3036Z" stroke="#002B5C" stroke-width="1.65244" stroke-linecap="round" stroke-linejoin="round"/>
<path fill-rule="evenodd" clip-rule="evenodd" d="M240.712 133.821C235.835 134.639 233.494 135.083 229.287 137.74L226.396 133.162C231.518 129.927 234.709 129.337 239.816 128.481L240.712 133.821Z" fill="#34CDAA" stroke="#34CDAA" stroke-width="1.27409" stroke-linecap="round" stroke-linejoin="round"/>
<path fill-rule="evenodd" clip-rule="evenodd" d="M126.958 201.471C125.509 201.961 124.003 202.866 121.888 204.621L118.429 200.455C120.784 198.5 122.881 197.134 125.222 196.342C127.572 195.547 129.942 195.406 132.706 195.534L132.456 200.943C130.003 200.83 128.397 200.984 126.958 201.471Z" fill="#FF8888" stroke="#FF8888" stroke-width="1.27409" stroke-linecap="round" stroke-linejoin="round"/>
<path fill-rule="evenodd" clip-rule="evenodd" d="M198.874 258.867C196.674 259.636 194.493 259.987 191.853 260.148L191.525 254.743C193.847 254.602 195.503 254.309 197.088 253.755C198.696 253.194 200.36 252.319 202.661 250.859L205.562 255.431C203.116 256.983 201.05 258.107 198.874 258.867Z" fill="#B4D5FA" stroke="#B4D5FA" stroke-width="1.27409" stroke-linecap="round" stroke-linejoin="round"/>
<path fill-rule="evenodd" clip-rule="evenodd" d="M353.606 161.573C351.669 162.867 349.644 163.753 347.129 164.569L345.458 159.418C347.672 158.701 349.201 158.003 350.597 157.07C352.013 156.124 353.405 154.86 355.268 152.871L359.221 156.572C357.241 158.686 355.522 160.292 353.606 161.573Z" fill="#FF8888" stroke="#FF8888" stroke-width="1.27409" stroke-linecap="round" stroke-linejoin="round"/>
<path fill-rule="evenodd" clip-rule="evenodd" d="M334.616 270.767C329.456 271.832 327.005 272.764 322.857 274.837L320.436 269.994C324.971 267.727 327.866 266.631 333.522 265.464L334.616 270.767Z" fill="#34CDAA" stroke="#34CDAA" stroke-width="1.27409" stroke-linecap="round" stroke-linejoin="round"/>
<path fill-rule="evenodd" clip-rule="evenodd" d="M504.49 151.222C503.022 151.73 501.656 152.566 499.852 154.085L496.365 149.943C498.457 148.182 500.401 146.907 502.719 146.105C505.01 145.312 507.473 145.048 510.494 145.007L510.567 150.421C507.786 150.459 505.986 150.704 504.49 151.222Z" fill="#34CDAA" stroke="#34CDAA" stroke-width="1.27409" stroke-linecap="round" stroke-linejoin="round"/>
<path fill-rule="evenodd" clip-rule="evenodd" d="M422.411 233.336C420.864 232.894 419.338 232.78 417.217 232.856L417.023 227.445C419.445 227.358 421.597 227.472 423.9 228.13C426.176 228.781 428.436 229.917 431.162 231.651L428.256 236.219C425.748 234.624 423.985 233.786 422.411 233.336Z" fill="#FF8888" stroke="#FF8888" stroke-width="1.27409" stroke-linecap="round" stroke-linejoin="round"/>
<path fill-rule="evenodd" clip-rule="evenodd" d="M317.843 87.2714C315.877 88.5208 313.832 89.3607 311.299 90.1185L309.747 84.9307C311.976 84.264 313.522 83.6016 314.938 82.7012C316.376 81.7877 317.797 80.5563 319.705 78.6103L323.571 82.401C321.544 84.4693 319.788 86.0351 317.843 87.2714Z" fill="#B4D5FA" stroke="#B4D5FA" stroke-width="1.27409" stroke-linecap="round" stroke-linejoin="round"/>
<path fill-rule="evenodd" clip-rule="evenodd" d="M152.477 98.957C149.685 98.422 147.418 96.7156 145.135 94.3171L149.057 90.5837C151.058 92.6854 152.357 93.4205 153.496 93.6389C154.68 93.8657 156.226 93.6428 158.988 92.5609L160.963 97.6029C157.977 98.7722 155.226 99.4837 152.477 98.957Z" fill="#FF8888" stroke="#FF8888" stroke-width="1.27409" stroke-linecap="round" stroke-linejoin="round"/>
<path fill-rule="evenodd" clip-rule="evenodd" d="M67.8796 86.5703C65.5522 86.4697 63.3951 85.9886 60.884 85.1602L62.5804 80.0179C64.7898 80.7468 66.4362 81.088 68.1134 81.1605C69.815 81.234 71.6848 81.0373 74.363 80.5332L75.3646 85.8547C72.5182 86.3904 70.1824 86.6698 67.8796 86.5703Z" fill="#B4D5FA" stroke="#B4D5FA" stroke-width="1.27409" stroke-linecap="round" stroke-linejoin="round"/>
<path fill-rule="evenodd" clip-rule="evenodd" d="M30.3065 225.648C28.4779 224.205 27.01 222.553 25.4582 220.412L29.8425 217.234C31.2079 219.118 32.3435 220.358 33.6612 221.398C34.9982 222.453 36.6297 223.387 39.0966 224.546L36.7954 229.447C34.1736 228.216 32.1159 227.076 30.3065 225.648Z" fill="#34CDAA" stroke="#34CDAA" stroke-width="1.27409" stroke-linecap="round" stroke-linejoin="round"/>
<path d="M392.328 105.878L398.981 102.3M392.328 100.287L395.179 93.3546" stroke="#002B5C" stroke-width="1.44589" stroke-linecap="round" stroke-linejoin="round"/>
<path d="M388.582 107.83C388.455 104.911 387.439 99.1984 384.393 99.7061C380.584 100.341 384.266 107.069 389.343 102.245C394.421 97.4213 384.52 89.9319 381.346 94.6286" stroke="#002B5C" stroke-width="1.44589" stroke-linecap="round" stroke-linejoin="round"/>
<circle cx="390.766" cy="86.8756" r="0.637045" fill="#002B5C"/>
<circle cx="381.983" cy="97.5422" r="0.637045" fill="#002B5C"/>
<circle cx="392.04" cy="102.427" r="0.637045" fill="#002B5C"/>
<circle cx="396.577" cy="98.8164" r="0.637045" fill="#002B5C"/>
<circle cx="401.463" cy="93.7769" r="0.637045" fill="#002B5C"/>
<path d="M456.618 138.636C452.541 142.203 448.761 142.671 447.381 142.458C447.254 144.115 444.674 148.351 443.4 150.262C442.508 148.988 442.179 144.529 442.126 142.458C441.223 142.352 439.323 141.789 438.94 140.388" stroke="#002B5C" stroke-width="1.27409" stroke-linecap="round" stroke-linejoin="round"/>
</svg>
